<?xml version="1.0" encoding="UTF-8" standalone="no"?>
<svg
   width="192"
   height="120"
   viewBox="0 0 192 120"
   version="1.1"
   style="stroke-linecap:round;stroke-linejoin:round;stroke-miterlimit:1.5"
   id="svg9"
   sodipodi:docname="catppuccin-line-bg.svg"
   inkscape:export-filename="catppuccin-line-bg.png"
   inkscape:export-xdpi="960"
   inkscape:export-ydpi="960"
   inkscape:version="1.4 (e7c3feb100, 2024-10-09)"
   xmlns:inkscape="http://www.inkscape.org/namespaces/inkscape"
   xmlns:sodipodi="http://sodipodi.sourceforge.net/DTD/sodipodi-0.dtd"
   xmlns="http://www.w3.org/2000/svg"
   xmlns:svg="http://www.w3.org/2000/svg">
  <defs
     id="defs9" />
  <sodipodi:namedview
     id="namedview9"
     pagecolor="#1e1e2e"
     bordercolor="#000000"
     borderopacity="0.25"
     inkscape:showpageshadow="2"
     inkscape:pageopacity="0.0"
     inkscape:pagecheckerboard="0"
     inkscape:deskcolor="#d1d1d1"
     inkscape:zoom="9.4575532"
     inkscape:cx="88.130617"
     inkscape:cy="61.115173"
     inkscape:window-width="3440"
     inkscape:window-height="1440"
     inkscape:window-x="0"
     inkscape:window-y="0"
     inkscape:window-maximized="1"
     inkscape:current-layer="svg9"
     showguides="false"
     inkscape:export-bgcolor="#1e1e2eff" />
  <g
     id="g1"
     transform="matrix(0.32030788,0,0,0.32030788,-0.08053374,43.762418)">
    <path
       d="m 198.1669,52.51472 c 0,-3.891 -3.336,-4.466 -3.336,-14.894"
       style="fill:none;stroke:#eba0ac;stroke-width:1.5px;stroke-opacity:1"
       id="path1" />
    <path
       d="m 201.7549,42.44172 v 9.997"
       style="fill:none;stroke:#eba0ac;stroke-width:1.5px;stroke-opacity:1"
       id="path2" />
    <path
       d="m 205.2409,52.26972 c 0,-3.435 2.17,-7.598 2.17,-13.068 0,-5.471 -0.66,-10.289 -0.837,-13.274"
       style="fill:none;stroke:#eba0ac;stroke-width:1.5px;stroke-opacity:1"
       id="path3" />
    <path
       d="m 205.3089,26.35872 c 0,0 3.384,-0.265 4.553,-5.546"
       style="fill:none;stroke:#eba0ac;stroke-width:1.5px;stroke-opacity:1"
       id="path4" />
    <path
       d="m 200.1459,15.96072 c 0,0 -1.419,-4.409 -2.619,-4.409 -1.2,0 -3.299,5.753 -3.299,14.428 0,2.241 -11.689,8.123 -9.211,21.709 0.398,2.18 1.394,6.337 1.394,6.353 0,0.016 2.518,9.529 -2.869,9.529 -1.121,0 -1.658,-0.62 -2.779,-0.62 -1.12,0 -2.024,0.765 -2.024,1.758 0,0.993 1.11,3.434 5.065,3.434 7.147,0 7.419,-5.987 7.419,-9.867 0,-3.88 -0.036,-2.679 -0.036,-3.314 0,-2.127 1.772,-2.56 2.43,-2.801"
       style="fill:none;stroke:#eba0ac;stroke-width:1.5px;stroke-opacity:1"
       id="path5" />
    <ellipse
       transform="matrix(0.92765078,-0.37344882,0.37345044,0.92765013,0,0)"
       cx="181.81393"
       cy="93.771011"
       rx="1.1177608"
       ry="1.4385843"
       style="fill:#eba0ac;fill-opacity:1;stroke:none;stroke-width:1.03697;stroke-opacity:1"
       id="ellipse5" />
    <path
       d="m 202.4319,14.46472 c 3.543,0 4.374,4.288 7.066,4.288"
       style="fill:none;stroke:#eba0ac;stroke-width:1.5px;stroke-opacity:1"
       id="path6" />
    <path
       d="m 204.9259,13.19172 c 0,0 -1.015,-2.334 -1.891,-2.334 -0.876,0 -2.14,2.429 -2.14,2.429"
       style="fill:none;stroke:#eba0ac;stroke-width:1.5px;stroke-opacity:1"
       id="path7" />
    <path
       d="M 194.68181,54.726175 H 598.94944"
       style="fill:none;stroke:#eba0ac;stroke-width:1.45054px;stroke-opacity:1"
       id="path8" />
    <path
       d="M 0.96533602,54.727353 H 183.32422"
       style="fill:none;stroke:#eba0ac;stroke-width:1.42782px;stroke-opacity:1"
       id="path9" />
  </g>
</svg>
